<mxfile host="drawio-plugin" modified="2025-02-20T05:37:43.256Z" agent="Mozilla/5.0 (Windows NT 10.0; Win64; x64) AppleWebKit/537.36 (KHTML, like Gecko) Chrome/122.0.0.0 Safari/537.36" version="22.1.22" etag="KqqDrCOsm-uv2wn32lsB" type="embed">
  <diagram id="aEjiED9XBM1UWYFWi9oy" name="Page-1">
    <mxGraphModel dx="442" dy="510" grid="1" gridSize="10" guides="1" tooltips="1" connect="1" arrows="1" fold="1" page="1" pageScale="1" pageWidth="850" pageHeight="1100" math="0" shadow="0">
      <root>
        <mxCell id="0" />
        <mxCell id="1" parent="0" />
      </root>
    </mxGraphModel>
  </diagram>
</mxfile>
